<?xml version="1.0" encoding="UTF-8" standalone="no"?>
<!DOCTYPE svg PUBLIC "-//W3C//DTD SVG 1.1//EN"
 "http://www.w3.org/Graphics/SVG/1.1/DTD/svg11.dtd">
<!-- Generated by graphviz version 2.40.1 (0)
 -->
<!-- Title: G Pages: 1 -->
<svg width="1534pt" height="161pt"
 viewBox="0.00 0.00 1533.80 160.80" xmlns="http://www.w3.org/2000/svg" xmlns:xlink="http://www.w3.org/1999/xlink">
<g id="graph0" class="graph" transform="scale(1 1) rotate(0) translate(14.4 146.4)">
<title>G</title>
<polygon fill="#ffffff" stroke="transparent" points="-14.4,14.4 -14.4,-146.4 1519.4,-146.4 1519.4,14.4 -14.4,14.4"/>
<!-- PARENT -->
<g id="node1" class="node">
<title>PARENT</title>
<path fill="#eef6ff" stroke="#24527a" stroke-width="1.4" d="M783.5,-41C783.5,-41 607.5,-41 607.5,-41 601.5,-41 595.5,-35 595.5,-29 595.5,-29 595.5,-12 595.5,-12 595.5,-6 601.5,0 607.5,0 607.5,0 783.5,0 783.5,0 789.5,0 795.5,-6 795.5,-12 795.5,-12 795.5,-29 795.5,-29 795.5,-35 789.5,-41 783.5,-41"/>
<text text-anchor="middle" x="695.5" y="-29" font-family="Helvetica,sans-Serif" font-size="10.00" fill="#000000">PARENT</text>
<text text-anchor="middle" x="695.5" y="-18" font-family="Helvetica,sans-Serif" font-size="10.00" fill="#000000">Lenalidomide creates a therapeutic window</text>
<text text-anchor="middle" x="695.5" y="-7" font-family="Helvetica,sans-Serif" font-size="10.00" fill="#000000">in del(5q) MDS by degrading CK1alpha.</text>
</g>
<!-- N1 -->
<g id="node2" class="node">
<title>N1</title>
<path fill="#f8fafc" stroke="#2f3a45" d="M225,-129.5C225,-129.5 12,-129.5 12,-129.5 6,-129.5 0,-123.5 0,-117.5 0,-117.5 0,-105.5 0,-105.5 0,-99.5 6,-93.5 12,-93.5 12,-93.5 225,-93.5 225,-93.5 231,-93.5 237,-99.5 237,-105.5 237,-105.5 237,-117.5 237,-117.5 237,-123.5 231,-129.5 225,-129.5"/>
<text text-anchor="middle" x="118.5" y="-114.5" font-family="Helvetica,sans-Serif" font-size="10.00" fill="#000000">mechanism_del5q_reduces_csnk1a1_copy_number</text>
<text text-anchor="middle" x="118.5" y="-103.5" font-family="Helvetica,sans-Serif" font-size="10.00" fill="#000000">del(5q) MDS reduces CSNK1A1 copy number.</text>
</g>
<!-- N1&#45;&gt;PARENT -->
<g id="edge1" class="edge">
<title>N1&#45;&gt;PARENT</title>
<path fill="none" stroke="#46515f" d="M226.4183,-93.4511C285.4881,-83.6612 359.9909,-71.4587 426.5,-61 479.7498,-52.6263 538.9887,-43.6689 588.2913,-36.3127"/>
<polygon fill="#46515f" stroke="#46515f" points="588.9293,-38.6947 595.4915,-35.2392 588.2067,-33.8483 588.9293,-38.6947"/>
<text text-anchor="middle" x="477.5" y="-63.8" font-family="Helvetica,sans-Serif" font-size="9.00" fill="#000000">ALL_OF / context_bridge</text>
</g>
<!-- N2 -->
<g id="node3" class="node">
<title>N2</title>
<path fill="#f8fafc" stroke="#2f3a45" d="M507.5,-132C507.5,-132 281.5,-132 281.5,-132 275.5,-132 269.5,-126 269.5,-120 269.5,-120 269.5,-103 269.5,-103 269.5,-97 275.5,-91 281.5,-91 281.5,-91 507.5,-91 507.5,-91 513.5,-91 519.5,-97 519.5,-103 519.5,-103 519.5,-120 519.5,-120 519.5,-126 513.5,-132 507.5,-132"/>
<text text-anchor="middle" x="394.5" y="-120" font-family="Helvetica,sans-Serif" font-size="10.00" fill="#000000">mechanism_del5q_strengthens_ck1alpha_dependency</text>
<text text-anchor="middle" x="394.5" y="-109" font-family="Helvetica,sans-Serif" font-size="10.00" fill="#000000">del(5q) MDS has a stronger dependency on</text>
<text text-anchor="middle" x="394.5" y="-98" font-family="Helvetica,sans-Serif" font-size="10.00" fill="#000000">CSNK1A1 than non&#45;del(5q) MDS.</text>
</g>
<!-- N2&#45;&gt;PARENT -->
<g id="edge2" class="edge">
<title>N2&#45;&gt;PARENT</title>
<path fill="none" stroke="#46515f" d="M462.4256,-90.9644C509.5397,-76.7206 572.2909,-57.7493 620.8125,-43.0799"/>
<polygon fill="#46515f" stroke="#46515f" points="621.5701,-45.4105 627.5616,-41.0395 620.1521,-40.7202 621.5701,-45.4105"/>
<text text-anchor="middle" x="603.5" y="-63.8" font-family="Helvetica,sans-Serif" font-size="9.00" fill="#000000">ALL_OF / required_step</text>
</g>
<!-- N3 -->
<g id="node4" class="node">
<title>N3</title>
<path fill="#f8fafc" stroke="#2f3a45" d="M827,-132C827,-132 564,-132 564,-132 558,-132 552,-126 552,-120 552,-120 552,-103 552,-103 552,-97 558,-91 564,-91 564,-91 827,-91 827,-91 833,-91 839,-97 839,-103 839,-103 839,-120 839,-120 839,-126 833,-132 827,-132"/>
<text text-anchor="middle" x="695.5" y="-120" font-family="Helvetica,sans-Serif" font-size="10.00" fill="#000000">mechanism_lenalidomide_reduces_ck1alpha_stability_via_crbn</text>
<text text-anchor="middle" x="695.5" y="-109" font-family="Helvetica,sans-Serif" font-size="10.00" fill="#000000">Lenalidomide reduces CK1alpha protein</text>
<text text-anchor="middle" x="695.5" y="-98" font-family="Helvetica,sans-Serif" font-size="10.00" fill="#000000">stability in a CRBN&#45;dependent manner.</text>
</g>
<!-- N3&#45;&gt;PARENT -->
<g id="edge3" class="edge">
<title>N3&#45;&gt;PARENT</title>
<path fill="none" stroke="#46515f" d="M695.5,-90.8507C695.5,-78.285 695.5,-62.0716 695.5,-48.3772"/>
<polygon fill="#46515f" stroke="#46515f" points="697.9501,-48.0676 695.5,-41.0676 693.0501,-48.0676 697.9501,-48.0676"/>
<text text-anchor="middle" x="744.5" y="-63.8" font-family="Helvetica,sans-Serif" font-size="9.00" fill="#000000">ALL_OF / required_step</text>
</g>
<!-- N4 -->
<g id="node5" class="node">
<title>N4</title>
<path fill="#f8fafc" stroke="#2f3a45" d="M1146,-132C1146,-132 883,-132 883,-132 877,-132 871,-126 871,-120 871,-120 871,-103 871,-103 871,-97 877,-91 883,-91 883,-91 1146,-91 1146,-91 1152,-91 1158,-97 1158,-103 1158,-103 1158,-120 1158,-120 1158,-126 1152,-132 1146,-132"/>
<text text-anchor="middle" x="1014.5" y="-120" font-family="Helvetica,sans-Serif" font-size="10.00" fill="#000000">mechanism_lenalidomide_lowers_ck1alpha_protein_abundance</text>
<text text-anchor="middle" x="1014.5" y="-109" font-family="Helvetica,sans-Serif" font-size="10.00" fill="#000000">Lenalidomide lowers CK1alpha protein</text>
<text text-anchor="middle" x="1014.5" y="-98" font-family="Helvetica,sans-Serif" font-size="10.00" fill="#000000">abundance.</text>
</g>
<!-- N4&#45;&gt;PARENT -->
<g id="edge4" class="edge">
<title>N4&#45;&gt;PARENT</title>
<path fill="none" stroke="#46515f" d="M942.5124,-90.9644C892.4788,-76.6914 825.805,-57.6716 774.3386,-42.99"/>
<polygon fill="#46515f" stroke="#46515f" points="774.9048,-40.6038 767.5012,-41.0395 773.5605,-45.3159 774.9048,-40.6038"/>
<text text-anchor="middle" x="913.5" y="-63.8" font-family="Helvetica,sans-Serif" font-size="9.00" fill="#000000">ALL_OF / required_step</text>
</g>
<!-- N5 -->
<g id="node6" class="node">
<title>N5</title>
<path fill="#f8fafc" stroke="#2f3a45" d="M1493,-132C1493,-132 1202,-132 1202,-132 1196,-132 1190,-126 1190,-120 1190,-120 1190,-103 1190,-103 1190,-97 1196,-91 1202,-91 1202,-91 1493,-91 1493,-91 1499,-91 1505,-97 1505,-103 1505,-103 1505,-120 1505,-120 1505,-126 1499,-132 1493,-132"/>
<text text-anchor="middle" x="1347.5" y="-120" font-family="Helvetica,sans-Serif" font-size="10.00" fill="#000000">mechanism_lenalidomide_selectively_decreases_del5q_mds_viability</text>
<text text-anchor="middle" x="1347.5" y="-109" font-family="Helvetica,sans-Serif" font-size="10.00" fill="#000000">Lenalidomide decreases viability of del(5q)</text>
<text text-anchor="middle" x="1347.5" y="-98" font-family="Helvetica,sans-Serif" font-size="10.00" fill="#000000">MDS cells more than non&#45;del(5q) cells.</text>
</g>
<!-- N5&#45;&gt;PARENT -->
<g id="edge5" class="edge">
<title>N5&#45;&gt;PARENT</title>
<path fill="none" stroke="#46515f" d="M1200.3655,-90.9644C1079.4521,-74.0884 910.9916,-50.5763 802.5804,-35.4453"/>
<polygon fill="#46515f" stroke="#46515f" points="802.799,-33.0021 795.5275,-34.4609 802.1216,-37.8551 802.799,-33.0021"/>
<text text-anchor="middle" x="1090.5" y="-63.8" font-family="Helvetica,sans-Serif" font-size="9.00" fill="#000000">ALL_OF / ordinary_child</text>
</g>
</g>
</svg>
